<svg xmlns="http://www.w3.org/2000/svg" width="2220" height="490" style="background:#0b0e14">
<g>
<rect x="8" y="8" width="724" height="454" rx="6" fill="#0b0e14" stroke="#2a3140"/>
<text x="22" y="28" fill="#e6edf3" font-size="14" font-family="sans-serif">A. Curva de escala medida (d96, 3,0M params, holdout 100 linhas)</text>
<line x1="70" y1="354" x2="660" y2="354" stroke="#39404f"/>
<line x1="70" y1="54" x2="70" y2="354" stroke="#39404f"/>
<line x1="70" y1="354.0" x2="660" y2="354.0" stroke="#1d222c"/>
<text x="64" y="357.0" fill="#8b949e" font-size="9" text-anchor="end" font-family="sans-serif">1.98</text>
<line x1="70" y1="279.0" x2="660" y2="279.0" stroke="#1d222c"/>
<text x="64" y="282.0" fill="#8b949e" font-size="9" text-anchor="end" font-family="sans-serif">2.11</text>
<line x1="70" y1="204.0" x2="660" y2="204.0" stroke="#1d222c"/>
<text x="64" y="207.0" fill="#8b949e" font-size="9" text-anchor="end" font-family="sans-serif">2.24</text>
<line x1="70" y1="129.0" x2="660" y2="129.0" stroke="#1d222c"/>
<text x="64" y="132.0" fill="#8b949e" font-size="9" text-anchor="end" font-family="sans-serif">2.37</text>
<line x1="70" y1="54.0" x2="660" y2="54.0" stroke="#1d222c"/>
<text x="64" y="57.0" fill="#8b949e" font-size="9" text-anchor="end" font-family="sans-serif">2.50</text>
<line x1="86.9" y1="54" x2="86.9" y2="354" stroke="#141922"/>
<text x="86.9" y="369" fill="#8b949e" font-size="9" text-anchor="middle" font-family="sans-serif">1M</text>
<line x1="197.7" y1="54" x2="197.7" y2="354" stroke="#141922"/>
<text x="197.7" y="369" fill="#8b949e" font-size="9" text-anchor="middle" font-family="sans-serif">2M</text>
<line x1="308.6" y1="54" x2="308.6" y2="354" stroke="#141922"/>
<text x="308.6" y="369" fill="#8b949e" font-size="9" text-anchor="middle" font-family="sans-serif">4M</text>
<line x1="419.4" y1="54" x2="419.4" y2="354" stroke="#141922"/>
<text x="419.4" y="369" fill="#8b949e" font-size="9" text-anchor="middle" font-family="sans-serif">8M</text>
<line x1="530.3" y1="54" x2="530.3" y2="354" stroke="#141922"/>
<text x="530.3" y="369" fill="#8b949e" font-size="9" text-anchor="middle" font-family="sans-serif">16M</text>
<line x1="641.2" y1="54" x2="641.2" y2="354" stroke="#141922"/>
<text x="641.2" y="369" fill="#8b949e" font-size="9" text-anchor="middle" font-family="sans-serif">32M</text>
<text x="365" y="388" fill="#8b949e" font-size="10" text-anchor="middle" font-family="sans-serif">tokens vistos (log)</text>
<text x="16" y="204" fill="#8b949e" font-size="10" transform="rotate(-90 16 204)" text-anchor="middle" font-family="sans-serif">bpb</text>
<line x1="419.4" y1="54" x2="419.4" y2="354" stroke="#ff5c5c" stroke-dasharray="4,3"/>
<text x="424" y="68" fill="#ff5c5c" font-size="9" font-family="sans-serif">pool de 8M se esgota: daqui pra frente e REPETICAO</text>
<polyline points="86.9,-604946690.8 93.2,-604946681.0 99.5,-604946671.4 105.9,-604946662.0 112.2,-604946652.8 118.5,-604946643.8 124.9,-604946634.9 131.2,-604946626.2 137.5,-604946617.7 143.9,-604946609.4 150.2,-604946601.2 156.6,-604946593.2 162.9,-604946585.3 169.2,-604946577.6 175.6,-604946570.1 181.9,-604946562.6 188.2,-604946555.4 194.6,-604946548.3 200.9,-604946541.3 207.3,-604946534.5 213.6,-604946527.8 219.9,-604946521.2 226.3,-604946514.8 232.6,-604946508.5 238.9,-604946502.3 245.3,-604946496.2 251.6,-604946490.3 258.0,-604946484.5 264.3,-604946478.7 270.6,-604946473.2 277.0,-604946467.7 283.3,-604946462.3 289.6,-604946457.0 296.0,-604946451.9 302.3,-604946446.8 308.7,-604946441.8 315.0,-604946437.0 321.3,-604946432.2 327.7,-604946427.5 334.0,-604946422.9 340.3,-604946418.4 346.7,-604946414.0 353.0,-604946409.7 359.3,-604946405.5 365.7,-604946401.4 372.0,-604946397.3 378.4,-604946393.3 384.7,-604946389.4 391.0,-604946385.6 397.4,-604946381.8 403.7,-604946378.1 410.0,-604946374.5 416.4,-604946371.0 422.7,-604946367.5 429.1,-604946364.1 435.4,-604946360.8 441.7,-604946357.6 448.1,-604946354.4 454.4,-604946351.2 460.7,-604946348.2 467.1,-604946345.1 473.4,-604946342.2 479.8,-604946339.3 486.1,-604946336.5 492.4,-604946333.7 498.8,-604946331.0 505.1,-604946328.3 511.4,-604946325.7 517.8,-604946323.1 524.1,-604946320.6 530.5,-604946318.1 536.8,-604946315.7 543.1,-604946313.3 549.5,-604946311.0 555.8,-604946308.7 562.1,-604946306.5 568.5,-604946304.3 574.8,-604946302.2 581.1,-604946300.1 587.5,-604946298.0 593.8,-604946296.0 600.2,-604946294.0 606.5,-604946292.1 612.8,-604946290.2 619.2,-604946288.3 625.5,-604946286.5 631.8,-604946284.7 638.2,-604946282.9 644.5,-604946281.2 650.9,-604946279.5" fill="none" stroke="#ffb454" stroke-width="1.6"/>
<polyline points="86.9,-604946869.8 93.2,-604946861.5 99.5,-604946853.2 105.9,-604946845.1 112.2,-604946837.0 118.5,-604946829.1 124.9,-604946821.2 131.2,-604946813.5 137.5,-604946805.8 143.9,-604946798.3 150.2,-604946790.8 156.6,-604946783.5 162.9,-604946776.2 169.2,-604946769.0 175.6,-604946761.9 181.9,-604946754.9 188.2,-604946748.0 194.6,-604946741.1 200.9,-604946734.4 207.3,-604946727.7 213.6,-604946721.1 219.9,-604946714.6 226.3,-604946708.2 232.6,-604946701.8 238.9,-604946695.6 245.3,-604946689.4 251.6,-604946683.2 258.0,-604946677.2 264.3,-604946671.2 270.6,-604946665.4 277.0,-604946659.5 283.3,-604946653.8 289.6,-604946648.1 296.0,-604946642.5 302.3,-604946637.0 308.7,-604946631.5 315.0,-604946626.1 321.3,-604946620.8 327.7,-604946615.5 334.0,-604946610.3 340.3,-604946605.2 346.7,-604946600.1 353.0,-604946595.1 359.3,-604946590.2 365.7,-604946585.3 372.0,-604946580.5 378.4,-604946575.7 384.7,-604946571.0 391.0,-604946566.4 397.4,-604946561.8 403.7,-604946557.2 410.0,-604946552.8 416.4,-604946548.3 422.7,-604946544.0 429.1,-604946539.7 435.4,-604946535.4 441.7,-604946531.2 448.1,-604946527.0 454.4,-604946522.9 460.7,-604946518.9 467.1,-604946514.9 473.4,-604946510.9 479.8,-604946507.0 486.1,-604946503.2 492.4,-604946499.4 498.8,-604946495.6 505.1,-604946491.9 511.4,-604946488.2 517.8,-604946484.6 524.1,-604946481.0 530.5,-604946477.5 536.8,-604946474.0 543.1,-604946470.6 549.5,-604946467.2 555.8,-604946463.8 562.1,-604946460.5 568.5,-604946457.2 574.8,-604946454.0 581.1,-604946450.8 587.5,-604946447.6 593.8,-604946444.5 600.2,-604946441.4 606.5,-604946438.4 612.8,-604946435.4 619.2,-604946432.4 625.5,-604946429.5 631.8,-604946426.6 638.2,-604946423.7 644.5,-604946420.9 650.9,-604946418.1" fill="none" stroke="#3fb950" stroke-width="1.6"/>
<circle cx="94.4" cy="-38.4" r="2.6" fill="#5ec8ff"/>
<circle cx="205.3" cy="89.7" r="2.6" fill="#5ec8ff"/>
<circle cx="270.2" cy="157.4" r="2.6" fill="#5ec8ff"/>
<circle cx="316.2" cy="194.5" r="2.6" fill="#5ec8ff"/>
<circle cx="351.9" cy="228.3" r="2.6" fill="#5ec8ff"/>
<circle cx="381.0" cy="244.5" r="2.6" fill="#5ec8ff"/>
<circle cx="405.7" cy="265.9" r="2.6" fill="#5ec8ff"/>
<circle cx="427.0" cy="273.4" r="2.6" fill="#5ec8ff"/>
<circle cx="445.9" cy="281.8" r="2.6" fill="#5ec8ff"/>
<circle cx="462.7" cy="290.2" r="2.6" fill="#5ec8ff"/>
<circle cx="478.0" cy="296.6" r="2.6" fill="#5ec8ff"/>
<circle cx="491.9" cy="300.8" r="2.6" fill="#5ec8ff"/>
<circle cx="504.7" cy="304.0" r="2.6" fill="#5ec8ff"/>
<circle cx="516.5" cy="318.4" r="2.6" fill="#5ec8ff"/>
<circle cx="527.6" cy="324.1" r="2.6" fill="#5ec8ff"/>
<circle cx="537.9" cy="325.9" r="2.6" fill="#5ec8ff"/>
<circle cx="547.6" cy="323.7" r="2.6" fill="#5ec8ff"/>
<circle cx="556.7" cy="325.6" r="2.6" fill="#5ec8ff"/>
<circle cx="565.4" cy="329.6" r="2.6" fill="#5ec8ff"/>
<circle cx="573.6" cy="328.1" r="2.6" fill="#5ec8ff"/>
<circle cx="581.4" cy="341.1" r="2.6" fill="#5ec8ff"/>
<circle cx="588.8" cy="342.6" r="2.6" fill="#5ec8ff"/>
<circle cx="595.9" cy="343.0" r="2.6" fill="#5ec8ff"/>
<circle cx="602.7" cy="345.7" r="2.6" fill="#5ec8ff"/>
<circle cx="609.3" cy="346.0" r="2.6" fill="#5ec8ff"/>
<circle cx="615.5" cy="345.3" r="2.6" fill="#5ec8ff"/>
<circle cx="621.6" cy="343.9" r="2.6" fill="#5ec8ff"/>
<circle cx="627.4" cy="349.9" r="2.6" fill="#5ec8ff"/>
<circle cx="633.0" cy="351.9" r="2.6" fill="#5ec8ff"/>
<circle cx="638.4" cy="353.3" r="2.6" fill="#5ec8ff"/>
<circle cx="643.7" cy="353.9" r="2.6" fill="#5ec8ff"/>
<circle cx="648.7" cy="353.8" r="2.6" fill="#5ec8ff"/>
<rect x="195.8" y="82.9" width="6" height="6" fill="#e6edf3"/>
<rect x="305.6" y="188.4" width="6" height="6" fill="#e6edf3"/>
<rect x="416.4" y="270.2" width="6" height="6" fill="#e6edf3"/>
<rect x="527.3" y="324.9" width="6" height="6" fill="#e6edf3"/>
<text x="102" y="71" fill="#5ec8ff" font-size="9" font-family="sans-serif">32 pontos medidos (1 run, saves periodicos)</text>
<text x="102" y="89" fill="#e6edf3" font-size="9" font-family="sans-serif">4 runs separados (cross-check)</text>
<text x="102" y="106" fill="#3fb950" font-size="9" font-family="sans-serif">ajuste janela limpa: L=1.51+90D^-0.315 (rmse 0.0035)</text>
<text x="102" y="123" fill="#ffb454" font-size="9" font-family="sans-serif">ajuste todos os 32: L=1.83+913D^-0.504 (rmse 0.0067)</text>
</g>
<g transform="translate(820,0)">
<rect x="8" y="8" width="724" height="454" rx="6" fill="#0b0e14" stroke="#2a3140"/>
<text x="22" y="28" fill="#e6edf3" font-size="14" font-family="sans-serif">B. Excesso sobre o piso, em log-log (reta = lei de potencia)</text>
<line x1="70" y1="354" x2="660" y2="354" stroke="#39404f"/>
<line x1="70" y1="54" x2="70" y2="354" stroke="#39404f"/>
<line x1="70" y1="64.7" x2="660" y2="64.7" stroke="#1d222c"/>
<text x="64" y="67.7" fill="#8b949e" font-size="9" text-anchor="end" font-family="sans-serif">1.2</text>
<line x1="70" y1="112.8" x2="660" y2="112.8" stroke="#1d222c"/>
<text x="64" y="115.8" fill="#8b949e" font-size="9" text-anchor="end" font-family="sans-serif">1</text>
<line x1="70" y1="171.5" x2="660" y2="171.5" stroke="#1d222c"/>
<text x="64" y="174.5" fill="#8b949e" font-size="9" text-anchor="end" font-family="sans-serif">0.8</text>
<line x1="70" y1="247.2" x2="660" y2="247.2" stroke="#1d222c"/>
<text x="64" y="250.2" fill="#8b949e" font-size="9" text-anchor="end" font-family="sans-serif">0.6</text>
<line x1="70" y1="295.2" x2="660" y2="295.2" stroke="#1d222c"/>
<text x="64" y="298.2" fill="#8b949e" font-size="9" text-anchor="end" font-family="sans-serif">0.5</text>
<line x1="70" y1="354.0" x2="660" y2="354.0" stroke="#1d222c"/>
<text x="64" y="357.0" fill="#8b949e" font-size="9" text-anchor="end" font-family="sans-serif">0.4</text>
<line x1="86.9" y1="54" x2="86.9" y2="354" stroke="#141922"/>
<text x="86.9" y="369" fill="#8b949e" font-size="9" text-anchor="middle" font-family="sans-serif">1M</text>
<line x1="197.7" y1="54" x2="197.7" y2="354" stroke="#141922"/>
<text x="197.7" y="369" fill="#8b949e" font-size="9" text-anchor="middle" font-family="sans-serif">2M</text>
<line x1="308.6" y1="54" x2="308.6" y2="354" stroke="#141922"/>
<text x="308.6" y="369" fill="#8b949e" font-size="9" text-anchor="middle" font-family="sans-serif">4M</text>
<line x1="419.4" y1="54" x2="419.4" y2="354" stroke="#141922"/>
<text x="419.4" y="369" fill="#8b949e" font-size="9" text-anchor="middle" font-family="sans-serif">8M</text>
<line x1="530.3" y1="54" x2="530.3" y2="354" stroke="#141922"/>
<text x="530.3" y="369" fill="#8b949e" font-size="9" text-anchor="middle" font-family="sans-serif">16M</text>
<line x1="641.2" y1="54" x2="641.2" y2="354" stroke="#141922"/>
<text x="641.2" y="369" fill="#8b949e" font-size="9" text-anchor="middle" font-family="sans-serif">32M</text>
<text x="365" y="388" fill="#8b949e" font-size="10" text-anchor="middle" font-family="sans-serif">tokens vistos (log)</text>
<text x="16" y="204" fill="#8b949e" font-size="10" transform="rotate(-90 16 204)" text-anchor="middle" font-family="sans-serif">excesso sobre o piso (bpb, log)</text>
<polyline points="70.0,63.3 80.0,68.4 90.0,73.6 100.0,78.8 110.0,84.0 120.0,89.2 130.0,94.3 140.0,99.5 150.0,104.7 160.0,109.9 170.0,115.1 180.0,120.2 190.0,125.4 200.0,130.6 210.0,135.8 220.0,141.0 230.0,146.1 240.0,151.3 250.0,156.5 260.0,161.7 270.0,166.9 280.0,172.0 290.0,177.2 300.0,182.4 310.0,187.6 320.0,192.8 330.0,197.9 340.0,203.1 350.0,208.3 360.0,213.5 370.0,218.7 380.0,223.8 390.0,229.0 400.0,234.2 410.0,239.4 420.0,244.6 430.0,249.7 440.0,254.9 450.0,260.1 460.0,265.3 470.0,270.5 480.0,275.7 490.0,280.8 500.0,286.0 510.0,291.2 520.0,296.4 530.0,301.6 540.0,306.7 550.0,311.9 560.0,317.1 570.0,322.3 580.0,327.5 590.0,332.6 600.0,337.8 610.0,343.0 620.0,348.2 630.0,353.4 640.0,358.5 650.0,363.7 660.0,368.9" fill="none" stroke="#3fb950" stroke-width="1.6"/>
<polyline points="70.0,64.7 80.0,69.3 90.0,73.9 100.0,78.5 110.0,83.1 120.0,87.7 130.0,92.3 140.0,96.9 150.0,101.5 160.0,106.1 170.0,110.7 180.0,115.4 190.0,120.0 200.0,124.6 210.0,129.2 220.0,133.8 230.0,138.4 240.0,143.0 250.0,147.6 260.0,152.2 270.0,156.8 280.0,161.5 290.0,166.1 300.0,170.7 310.0,175.3 320.0,179.9 330.0,184.5 340.0,189.1 350.0,193.7 360.0,198.3 370.0,202.9 380.0,207.5 390.0,212.2 400.0,216.8 410.0,221.4 420.0,226.0 430.0,230.6 440.0,235.2 450.0,239.8 460.0,244.4 470.0,249.0 480.0,253.6 490.0,258.2 500.0,262.9 510.0,267.5 520.0,272.1 530.0,276.7 540.0,281.3 550.0,285.9 560.0,290.5 570.0,295.1 580.0,299.7 590.0,304.3 600.0,308.9 610.0,313.6 620.0,318.2 630.0,322.8 640.0,327.4 650.0,332.0 660.0,336.6" fill="none" stroke="#ffb454" stroke-width="1.6" stroke-dasharray="4,3"/>
<polyline points="70.0,72.1 80.0,73.7 90.0,75.2 100.0,76.8 110.0,78.4 120.0,79.9 130.0,81.5 140.0,83.0 150.0,84.6 160.0,86.2 170.0,87.7 180.0,89.3 190.0,90.9 200.0,92.4 210.0,94.0 220.0,95.6 230.0,97.1 240.0,98.7 250.0,100.2 260.0,101.8 270.0,103.4 280.0,104.9 290.0,106.5 300.0,108.1 310.0,109.6 320.0,111.2 330.0,112.8 340.0,114.3 350.0,115.9 360.0,117.5 370.0,119.0 380.0,120.6 390.0,122.1 400.0,123.7 410.0,125.3 420.0,126.8 430.0,128.4 440.0,130.0 450.0,131.5 460.0,133.1 470.0,134.7 480.0,136.2 490.0,137.8 500.0,139.3 510.0,140.9 520.0,142.5 530.0,144.0 540.0,145.6 550.0,147.2 560.0,148.7 570.0,150.3 580.0,151.9 590.0,153.4 600.0,155.0 610.0,156.5 620.0,158.1 630.0,159.7 640.0,161.2 650.0,162.8 660.0,164.4" fill="none" stroke="#ff5c5c" stroke-width="1.6" stroke-dasharray="4,3"/>
<circle cx="94.4" cy="75.9" r="3" fill="#5ec8ff"/>
<circle cx="205.3" cy="132.4" r="3" fill="#5ec8ff"/>
<circle cx="270.2" cy="168.0" r="3" fill="#5ec8ff"/>
<circle cx="316.2" cy="189.8" r="3" fill="#5ec8ff"/>
<circle cx="351.9" cy="211.2" r="3" fill="#5ec8ff"/>
<circle cx="381.0" cy="222.2" r="3" fill="#5ec8ff"/>
<circle cx="405.7" cy="237.5" r="3" fill="#5ec8ff"/>
<circle cx="427.0" cy="243.1" r="3" fill="#5ec8ff"/>
<circle cx="445.9" cy="249.4" r="3" fill="#5ec8ff"/>
<circle cx="462.7" cy="255.9" r="3" fill="#5ec8ff"/>
<circle cx="478.0" cy="261.0" r="3" fill="#5ec8ff"/>
<circle cx="491.9" cy="264.3" r="3" fill="#5ec8ff"/>
<circle cx="504.7" cy="267.0" r="3" fill="#5ec8ff"/>
<circle cx="516.5" cy="279.1" r="3" fill="#5ec8ff"/>
<circle cx="527.6" cy="284.0" r="3" fill="#5ec8ff"/>
<circle cx="537.9" cy="285.5" r="3" fill="#5ec8ff"/>
<circle cx="547.6" cy="283.7" r="3" fill="#5ec8ff"/>
<circle cx="556.7" cy="285.3" r="3" fill="#5ec8ff"/>
<circle cx="565.4" cy="288.8" r="3" fill="#5ec8ff"/>
<circle cx="573.6" cy="287.5" r="3" fill="#5ec8ff"/>
<circle cx="581.4" cy="299.3" r="3" fill="#5ec8ff"/>
<circle cx="588.8" cy="300.7" r="3" fill="#5ec8ff"/>
<circle cx="595.9" cy="301.1" r="3" fill="#5ec8ff"/>
<circle cx="602.7" cy="303.6" r="3" fill="#5ec8ff"/>
<circle cx="609.3" cy="303.8" r="3" fill="#5ec8ff"/>
<circle cx="615.5" cy="303.2" r="3" fill="#5ec8ff"/>
<circle cx="621.6" cy="301.9" r="3" fill="#5ec8ff"/>
<circle cx="627.4" cy="307.6" r="3" fill="#5ec8ff"/>
<circle cx="633.0" cy="309.5" r="3" fill="#5ec8ff"/>
<circle cx="638.4" cy="310.9" r="3" fill="#5ec8ff"/>
<circle cx="643.7" cy="311.4" r="3" fill="#5ec8ff"/>
<circle cx="648.7" cy="311.4" r="3" fill="#5ec8ff"/>
<text x="102" y="126" fill="#3fb950" font-size="9" font-family="sans-serif">medido 0.315</text>
<text x="102" y="199" fill="#ffb454" font-size="9" font-family="sans-serif">Chinchilla 0.28</text>
<text x="102" y="256" fill="#ff5c5c" font-size="9" font-family="sans-serif">Kaplan 0.095</text>
<line x1="419.4" y1="54" x2="419.4" y2="354" stroke="#ff5c5c" stroke-dasharray="4,3"/>
<text x="424" y="68" fill="#ff5c5c" font-size="9" font-family="sans-serif">a partir daqui os dados se repetem</text>
<text x="102" y="329" fill="#8b949e" font-size="9" font-family="sans-serif">reta = expoente constante; encurvar = muda de regime</text>
</g>
<g transform="translate(1640,0)">
<rect x="8" y="8" width="724" height="454" rx="6" fill="#0b0e14" stroke="#2a3140"/>
<text x="22" y="28" fill="#e6edf3" font-size="14" font-family="sans-serif">C. Inclinacao local do excesso (sem assumir piso)</text>
<line x1="70" y1="354" x2="660" y2="354" stroke="#39404f"/>
<line x1="70" y1="54" x2="70" y2="354" stroke="#39404f"/>
<line x1="70" y1="354.0" x2="660" y2="354.0" stroke="#1d222c"/>
<text x="64" y="357.0" fill="#8b949e" font-size="9" text-anchor="end" font-family="sans-serif">0.00</text>
<line x1="70" y1="279.0" x2="660" y2="279.0" stroke="#1d222c"/>
<text x="64" y="282.0" fill="#8b949e" font-size="9" text-anchor="end" font-family="sans-serif">0.11</text>
<line x1="70" y1="204.0" x2="660" y2="204.0" stroke="#1d222c"/>
<text x="64" y="207.0" fill="#8b949e" font-size="9" text-anchor="end" font-family="sans-serif">0.23</text>
<line x1="70" y1="129.0" x2="660" y2="129.0" stroke="#1d222c"/>
<text x="64" y="132.0" fill="#8b949e" font-size="9" text-anchor="end" font-family="sans-serif">0.34</text>
<line x1="70" y1="54.0" x2="660" y2="54.0" stroke="#1d222c"/>
<text x="64" y="57.0" fill="#8b949e" font-size="9" text-anchor="end" font-family="sans-serif">0.45</text>
<line x1="86.9" y1="54" x2="86.9" y2="354" stroke="#141922"/>
<text x="86.9" y="369" fill="#8b949e" font-size="9" text-anchor="middle" font-family="sans-serif">1M</text>
<line x1="197.7" y1="54" x2="197.7" y2="354" stroke="#141922"/>
<text x="197.7" y="369" fill="#8b949e" font-size="9" text-anchor="middle" font-family="sans-serif">2M</text>
<line x1="308.6" y1="54" x2="308.6" y2="354" stroke="#141922"/>
<text x="308.6" y="369" fill="#8b949e" font-size="9" text-anchor="middle" font-family="sans-serif">4M</text>
<line x1="419.4" y1="54" x2="419.4" y2="354" stroke="#141922"/>
<text x="419.4" y="369" fill="#8b949e" font-size="9" text-anchor="middle" font-family="sans-serif">8M</text>
<line x1="530.3" y1="54" x2="530.3" y2="354" stroke="#141922"/>
<text x="530.3" y="369" fill="#8b949e" font-size="9" text-anchor="middle" font-family="sans-serif">16M</text>
<line x1="641.2" y1="54" x2="641.2" y2="354" stroke="#141922"/>
<text x="641.2" y="369" fill="#8b949e" font-size="9" text-anchor="middle" font-family="sans-serif">32M</text>
<text x="365" y="388" fill="#8b949e" font-size="10" text-anchor="middle" font-family="sans-serif">tokens vistos (log)</text>
<text x="16" y="204" fill="#8b949e" font-size="10" transform="rotate(-90 16 204)" text-anchor="middle" font-family="sans-serif">|inclinacao log-log|</text>
<polyline points="159.3,147.8 270.2,144.4 381.0,159.4 491.9,198.8 602.7,259.7" fill="none" stroke="#5ec8ff" stroke-width="1.6"/>
<circle cx="159.3" cy="147.8" r="4" fill="#5ec8ff"/>
<text x="159.3" y="138.8" fill="#8b949e" font-size="9" text-anchor="middle" font-family="sans-serif">0.309</text>
<circle cx="270.2" cy="144.4" r="4" fill="#5ec8ff"/>
<text x="270.2" y="135.4" fill="#8b949e" font-size="9" text-anchor="middle" font-family="sans-serif">0.314</text>
<circle cx="381.0" cy="159.4" r="4" fill="#5ec8ff"/>
<text x="381.0" y="150.4" fill="#8b949e" font-size="9" text-anchor="middle" font-family="sans-serif">0.292</text>
<circle cx="491.9" cy="198.8" r="4" fill="#5ec8ff"/>
<text x="491.9" y="189.8" fill="#8b949e" font-size="9" text-anchor="middle" font-family="sans-serif">0.233</text>
<circle cx="602.7" cy="259.7" r="4" fill="#5ec8ff"/>
<text x="602.7" y="250.7" fill="#8b949e" font-size="9" text-anchor="middle" font-family="sans-serif">0.142</text>
<line x1="86.9" y1="144.2" x2="650.9" y2="144.2" stroke="#3fb950" stroke-dasharray="4,3"/>
<text x="95" y="138" fill="#3fb950" font-size="9" font-family="sans-serif">alpha do ajuste limpo = 0.315</text>
<line x1="419.4" y1="54" x2="419.4" y2="354" stroke="#ff5c5c" stroke-dasharray="4,3"/>
<text x="424" y="68" fill="#ff5c5c" font-size="9" font-family="sans-serif">dados repetidos</text>
<text x="95" y="74" fill="#8b949e" font-size="9" font-family="sans-serif">constante na janela limpa, cai depois</text>
</g>
<text x="10" y="470" fill="#8b949e" font-size="9" font-family="sans-serif">fonte: /tmp/scal (job 102, 32 checkpoints de UM run de 32768 passos, LR constante 6e-4, blas, d96); janela limpa = ate 8M tokens (pool sem repeticao). O job 103 (pool de 65M) repete isto sem trecho de repeticao.</text>
</svg>